HIERARCHY
ROOT Hips
{
	OFFSET 0.000000 0.000000 0.000000
	CHANNELS 6 Xposition Yposition Zposition Zrotation Yrotation Xrotation 
	JOINT LHipJoint
	{
		OFFSET 0.000000 0.000000 0.000000
		CHANNELS 3 Zrotation Yrotation Xrotation
		JOINT LeftUpLeg
		{
			OFFSET 1.363060 -1.794630 0.839290
			CHANNELS 3 Zrotation Yrotation Xrotation
			JOINT LeftLeg
			{
				OFFSET 2.448110 -6.726130 0.000000
				CHANNELS 3 Zrotation Yrotation Xrotation
				JOINT LeftFoot
				{
					OFFSET 2.562200 -7.039590 0.000000
					CHANNELS 3 Zrotation Yrotation Xrotation
					JOINT LeftToeBase
					{
						OFFSET 0.157640 -0.433110 2.322550
						CHANNELS 3 Zrotation Yrotation Xrotation
						End Site
						{
							OFFSET 0.000000 0.000000 0.000000
						}
					}
				}
			}
		}
	}
	JOINT RHipJoint
	{
		OFFSET 0.000000 0.000000 0.000000
		CHANNELS 3 Zrotation Yrotation Xrotation
		JOINT RightUpLeg
		{
			OFFSET -1.305520 -1.794630 0.839290
			CHANNELS 3 Zrotation Yrotation Xrotation
			JOINT RightLeg
			{
				OFFSET -2.542530 -6.985550 0.000000
				CHANNELS 3 Zrotation Yrotation Xrotation
				JOINT RightFoot
				{
					OFFSET -2.568260 -7.056230 0.000000
					CHANNELS 3 Zrotation Yrotation Xrotation
					JOINT RightToeBase
					{
						OFFSET -0.164730 -0.452590 2.363150
						CHANNELS 3 Zrotation Yrotation Xrotation
						End Site
						{
							OFFSET 0.000000 0.000000 0.000000
						}
					}
				}
			}
		}
	}
	JOINT LowerBack
	{
		OFFSET 0.000000 0.000000 0.000000
		CHANNELS 3 Zrotation Yrotation Xrotation
		JOINT Spine
		{
			OFFSET 0.028270 2.035590 -0.193380
			CHANNELS 3 Zrotation Yrotation Xrotation
			JOINT Spine1
			{
				OFFSET 0.056720 2.048850 -0.042750
				CHANNELS 3 Zrotation Yrotation Xrotation
				JOINT Neck
				{
					OFFSET 0.000000 0.000000 0.000000
					CHANNELS 3 Zrotation Yrotation Xrotation
					JOINT Neck1
					{
						OFFSET -0.054170 1.746240 0.172020
						CHANNELS 3 Zrotation Yrotation Xrotation
						JOINT Head
						{
							OFFSET 0.104070 1.761360 -0.123970
							CHANNELS 3 Zrotation Yrotation Xrotation
							End Site
							{
								OFFSET 0.000000 0.000000 0.000000
							}
						}
					}
				}
				JOINT LeftShoulder
				{
					OFFSET 0.000000 0.000000 0.000000
					CHANNELS 3 Zrotation Yrotation Xrotation
					JOINT LeftArm
					{
						OFFSET 3.362410 1.200890 -0.311210
						CHANNELS 3 Zrotation Yrotation Xrotation
						JOINT LeftForeArm
						{
							OFFSET 4.983000 -0.000000 -0.000000
							CHANNELS 3 Zrotation Yrotation Xrotation
							JOINT LeftHand
							{
								OFFSET 3.483560 -0.000000 -0.000000
								CHANNELS 3 Zrotation Yrotation Xrotation
								JOINT LeftFingerBase
								{
									OFFSET 0.000000 0.000000 0.000000
									CHANNELS 3 Zrotation Yrotation Xrotation
									JOINT LeftHandIndex1
									{
										OFFSET 0.715260 -0.000000 -0.000000
										CHANNELS 3 Zrotation Yrotation Xrotation
										End Site
										{
											OFFSET 0.000000 0.000000 0.000000
										}
									}
								}
								JOINT LThumb
								{
									OFFSET 0.000000 0.000000 0.000000
									CHANNELS 3 Zrotation Yrotation Xrotation
									End Site
									{
										OFFSET 0.000000 0.000000 0.000000
									}
								}
							}
						}
					}
				}
				JOINT RightShoulder
				{
					OFFSET 0.000000 0.000000 0.000000
					CHANNELS 3 Zrotation Yrotation Xrotation
					JOINT RightArm
					{
						OFFSET -3.136600 1.374050 -0.404650
						CHANNELS 3 Zrotation Yrotation Xrotation
						JOINT RightForeArm
						{
							OFFSET -5.241900 -0.000000 -0.000000
							CHANNELS 3 Zrotation Yrotation Xrotation
							JOINT RightHand
							{
								OFFSET -3.444170 -0.000000 -0.000000
								CHANNELS 3 Zrotation Yrotation Xrotation
								JOINT RightFingerBase
								{
									OFFSET 0.000000 0.000000 0.000000
									CHANNELS 3 Zrotation Yrotation Xrotation
									JOINT RightHandIndex1
									{
										OFFSET -0.622530 -0.000000 -0.000000
										CHANNELS 3 Zrotation Yrotation Xrotation
										End Site
										{
											OFFSET 0.000000 0.000000 0.000000
										}
									}
								}
								JOINT RThumb
								{
									OFFSET 0.000000 0.000000 0.000000
									CHANNELS 3 Zrotation Yrotation Xrotation
									End Site
									{
										OFFSET 0.000000 0.000000 0.000000
									}
								}
							}
						}
					}
				}
			}
		}
	}
}
MOTION
Frames: 11
Frame Time: 0.008333
9.739559 18.798302 0.187428 -1.411597 3.334009 7.001997 -0.463566 -0.494534 -0.431796 -13.669537 4.801928 -25.311286 8.807705 18.120358 57.427691 -4.628281 15.105473 7.092126 0.203900 -2.907700 -8.021800 2.175883 0.027816 1.116237 21.129306 0.461881 -15.862851 2.536427 -6.846117 19.696528 -2.726689 4.696812 12.940795 -0.106900 2.108300 -5.804900 -0.746236 -0.026581 -4.361822 1.147803 -0.244482 -5.358122 5.423121 -0.150350 5.830766 -10.142059 -3.710370 -17.471845 5.936029 -2.767333 10.689593 6.158900 -1.917800 13.253600 -1.267848 -7.558886 -0.992170 -83.732272 -6.280626 43.879744 11.382721 -19.940193 -3.041621 0.179519 1.248306 -0.262893 12.337123 -19.771928 -4.428300 -7.125000 0.000000 0.000000 -10.456900 8.765300 8.894700 0.681099 8.512179 0.458797 76.289625 -3.670169 24.680372 -7.906632 13.995160 -2.521020 3.708098 2.005443 -3.341361 -26.033853 -23.157858 13.284100 7.125000 0.000000 0.000000 -0.493100 -57.493400 0.150900 
9.734167 18.772218 0.370564 -1.569366 2.879526 7.146017 -0.407590 -0.662992 -0.645955 -13.815456 4.823198 -26.656645 8.618872 18.174239 56.964766 -4.576250 14.891468 6.858472 0.124400 -2.273600 -6.262500 2.170396 0.022370 1.195470 21.465859 0.513999 -15.477933 2.520928 -6.807507 19.666888 -2.669719 4.632287 12.271949 -0.257700 3.265800 -9.019600 -0.547858 0.243015 -4.332590 1.115686 0.082672 -5.365818 5.285700 0.063718 5.686844 -10.190412 -3.752669 -17.222237 5.955952 -2.824085 10.527225 6.199600 -1.939500 13.061000 -1.326211 -7.538828 -0.983768 -83.709996 -5.284241 42.953963 10.921051 -19.443429 -2.880333 0.215063 1.233942 0.366838 11.679032 -19.608019 -4.140900 -7.125000 0.000000 0.000000 -10.884400 9.013800 9.217100 0.664618 8.566573 0.482561 75.927434 -3.074923 26.643294 -8.457938 14.653016 -2.709302 3.680621 2.226253 -4.083797 -25.651454 -24.367269 13.747300 7.125000 0.000000 0.000000 0.343300 -58.880800 -0.116500 
9.738019 18.770897 0.569549 -1.659900 2.338381 7.250411 -0.362349 -0.840207 -0.887095 -13.922436 4.721663 -27.992927 8.375967 18.189485 56.154457 -4.668321 15.186999 7.410368 0.070900 -1.718300 -4.727800 2.159471 0.009221 1.296897 21.667314 0.411302 -15.104043 2.495809 -6.776754 19.685652 -2.657525 4.688141 11.794987 -0.386600 3.992900 -11.056700 -0.398997 0.482952 -4.303512 1.090373 0.370175 -5.367063 5.124604 0.245641 5.730458 -10.028393 -3.703616 -17.477963 5.816128 -2.778810 10.531361 6.047100 -1.913500 13.153500 -1.341227 -7.522262 -1.007546 -83.717684 -4.349679 41.671589 10.377833 -18.860519 -2.691585 0.320014 1.152611 1.064715 9.962805 -19.018120 -3.369800 -7.125000 0.000000 0.000000 -12.026500 9.852800 10.020400 0.704264 8.596700 0.463545 75.426380 -2.400557 29.134776 -9.054959 15.268706 -2.755127 3.625451 1.843645 -4.736104 -26.239590 -21.368903 12.365600 7.125000 0.000000 0.000000 -1.164600 -55.348300 0.295900 
9.745613 18.761542 0.781410 -1.798381 1.774200 7.226728 -0.337029 -0.965668 -1.072454 -14.016611 4.804487 -28.980011 8.005394 18.114724 55.170450 -4.607498 14.952605 7.222136 0.230400 -3.089800 -8.528800 2.136323 -0.040671 1.415810 21.889798 0.252757 -14.519362 2.459658 -6.758533 19.773335 -2.774862 5.225880 11.144934 -0.424200 4.180200 -11.584100 -0.188340 0.716874 -4.256025 1.072334 0.646581 -5.351449 4.994322 0.414045 5.847873 -9.957775 -3.653195 -17.761368 5.753887 -2.701371 10.556310 5.993500 -1.877400 13.267500 -1.370984 -7.480765 -1.025591 -83.786000 -3.394238 40.206823 9.714716 -18.137045 -2.470452 0.464442 1.038276 2.246560 7.769178 -18.211243 -2.441500 -7.125000 0.000000 0.000000 -13.512100 10.944600 11.019900 0.736093 8.606375 0.461635 74.829912 -1.691446 31.987111 -9.706253 15.964649 -2.873163 3.589091 1.615858 -6.643655 -27.282918 -18.953299 11.408200 7.125000 0.000000 0.000000 -2.780800 -52.529600 0.515700 
9.749465 18.750096 0.985787 -2.114818 1.358138 7.191227 -0.306614 -1.084239 -1.247931 -13.876969 4.765292 -29.870128 7.495096 17.966761 53.928474 -4.439082 14.317553 6.195085 0.315400 -3.610500 -9.983200 2.113203 -0.092322 1.539816 22.338003 0.117454 -13.857430 2.430734 -6.720943 19.801929 -2.914123 5.882370 10.220073 -0.388200 4.000700 -11.078800 0.250011 0.953191 -4.140833 1.056063 0.914688 -5.355607 4.801891 0.600012 5.685516 -10.047151 -3.689260 -17.494563 5.822804 -2.739649 10.442728 6.106500 -1.898800 13.123800 -1.427882 -7.424828 -1.016876 -83.773356 -2.114355 39.032370 9.203352 -17.581053 -2.314912 0.515068 1.021944 3.665862 7.128213 -18.065277 -2.201700 -7.125000 0.000000 0.000000 -13.940800 11.141400 11.333700 0.679273 8.627072 0.480391 74.385795 -1.367087 34.127470 -10.710909 17.118984 -3.220494 3.555141 1.889395 -8.389332 -27.410660 -20.105545 12.175500 7.125000 0.000000 0.000000 -2.751300 -53.994800 0.608700 
9.752106 18.740191 1.177508 -2.358325 1.000280 7.217501 -0.299426 -1.220245 -1.431996 -13.741571 4.655770 -30.796148 6.925622 17.754122 52.305603 -4.461230 14.307517 5.930595 0.108800 -2.126500 -5.855500 2.112737 -0.126194 1.667250 22.666373 0.004746 -13.332796 2.421178 -6.653594 19.736613 -2.985959 6.252496 9.753461 -0.341000 3.752300 -10.380800 0.627345 1.249912 -3.932064 1.020852 1.268276 -5.394850 4.592188 0.836070 5.279693 -10.179898 -3.808454 -17.095527 5.853788 -2.886740 10.346275 6.200000 -1.986500 13.024100 -1.483075 -7.398834 -1.021232 -83.654719 -0.645448 38.704841 8.830773 -17.159882 -2.198642 0.442998 1.112751 4.512485 8.134797 -18.497834 -2.635800 -7.125000 0.000000 0.000000 -13.229000 10.544700 10.886600 0.591177 8.677905 0.480401 74.048381 -1.266093 35.447690 -11.735305 18.279417 -3.610791 3.491983 2.188374 -9.491093 -27.054931 -21.729365 12.976600 7.125000 0.000000 0.000000 -2.020600 -55.948600 0.542900 
9.761791 18.735018 1.388378 -2.337161 0.471035 7.289071 -0.348929 -1.344071 -1.602835 -13.873171 4.660612 -31.515846 6.293255 17.462357 50.422684 -4.529029 14.517066 6.398389 0.036200 -1.227800 -3.375900 2.143358 -0.183107 1.821367 22.575928 -0.258868 -12.726005 2.445701 -6.492850 19.458503 -3.044216 6.498906 10.112630 -0.276800 3.384000 -9.349700 0.699145 1.528495 -3.933039 0.972474 1.613257 -5.392553 4.422476 1.045659 5.285240 -10.181393 -3.858883 -17.186343 5.812753 -2.946043 10.310450 6.187400 -2.016500 13.059600 -1.523430 -7.344908 -1.020471 -83.511439 0.428620 38.210239 8.306862 -16.559822 -2.044749 0.344053 1.247188 5.001017 9.358316 -19.246913 -3.229600 -7.125000 0.000000 0.000000 -12.370000 9.569000 10.393300 0.555293 8.680351 0.482454 73.575202 -0.722099 37.136384 -12.577874 19.200610 -3.926840 3.439633 2.369963 -11.028287 -27.156945 -22.344697 13.393900 7.125000 0.000000 0.000000 -2.008300 -56.728500 0.577500 
9.779730 18.737660 1.617298 -2.210233 -0.140058 7.280180 -0.441411 -1.442634 -1.744673 -14.144823 4.797883 -31.978609 5.590348 17.094347 48.436469 -4.452948 14.352521 6.721669 0.082800 -1.856400 -5.109100 2.171406 -0.281525 2.008720 22.282614 -0.775743 -11.930605 2.479180 -6.268419 19.066197 -3.187244 7.043603 10.748436 -0.203600 2.905200 -8.014900 0.642890 1.720980 -4.016204 0.946474 1.844259 -5.347950 4.392786 1.184174 5.548110 -10.178140 -3.782434 -17.383771 5.744908 -2.817517 10.212507 6.139100 -1.949400 12.969300 -1.527428 -7.255954 -1.011737 -83.599295 1.411251 36.710308 7.808705 -16.044542 -1.923094 0.322087 1.335867 5.872553 9.691581 -19.974075 -3.495000 -7.125000 0.000000 0.000000 -12.131500 8.729700 10.391700 0.568069 8.643984 0.523219 72.901631 0.229007 38.908053 -13.306179 19.978287 -4.234722 3.391862 2.635191 -12.403667 -27.131017 -23.593451 14.119500 7.125000 0.000000 0.000000 -1.688700 -58.259900 0.547900 
9.786554 18.734798 1.819034 -2.510875 -0.709559 7.326274 -0.480127 -1.558912 -1.922844 -13.890119 4.916233 -32.640887 4.855568 16.673399 46.282818 -4.320330 14.010117 6.757976 0.104600 -2.085800 -5.742900 2.182132 -0.355540 2.143463 22.548778 -0.722218 -11.019682 2.536325 -6.033664 18.563961 -3.165191 7.086614 10.765357 -0.229900 3.086100 -8.518400 1.006523 1.966618 -3.949438 0.940688 2.122332 -5.325926 4.318839 1.363437 5.576886 -10.226474 -3.747278 -17.283208 5.789517 -2.749481 10.030283 6.201100 -1.904200 12.761400 -1.537798 -7.183065 -0.999845 -83.717946 2.491357 34.776721 7.350889 -15.562666 -1.824016 0.354025 1.408655 7.382844 9.683050 -20.694201 -3.621600 -7.125000 0.000000 0.000000 -12.136300 7.940100 10.590200 0.558224 8.652696 0.573625 72.308740 1.038014 40.004561 -14.052775 20.767519 -4.573398 3.326492 2.890568 -13.174713 -26.760202 -25.062853 14.753400 7.125000 0.000000 0.000000 -0.789900 -59.972400 0.288600 
9.781051 18.729295 2.000850 -3.119751 -1.212022 7.467817 -0.479337 -1.690001 -2.139312 -13.195682 4.945448 -33.429267 4.121281 16.192035 43.891023 -4.306223 14.026772 7.173266 0.041100 -1.309200 -3.600100 2.193102 -0.412715 2.234117 23.243979 0.048974 -9.931947 2.631368 -5.762918 17.872626 -2.917329 6.353022 10.361291 -0.319600 3.634200 -10.049700 1.630359 2.204789 -3.805652 0.949506 2.377224 -5.335335 4.140604 1.543183 5.442506 -10.131512 -3.709168 -17.139240 5.810023 -2.730502 9.913887 6.201800 -1.879200 12.630500 -1.535500 -7.139069 -0.995521 -83.729521 3.524571 32.811143 6.839908 -14.961094 -1.700610 0.333602 1.500242 8.929243 10.297162 -21.200550 -3.986900 -7.125000 0.000000 0.000000 -11.718000 7.282000 10.362900 0.539644 8.682414 0.596653 71.823025 1.584344 41.127969 -14.990321 21.711686 -4.939449 3.309976 2.881192 -14.273265 -27.484535 -24.647770 14.916900 7.125000 0.000000 0.000000 -1.829900 -59.606900 0.652700 
9.776539 18.738210 2.195652 -3.352969 -1.681873 7.486521 -0.553104 -1.805576 -2.330944 -12.812297 4.915103 -33.958130 3.374885 15.639302 41.334132 -4.476579 14.606569 8.151031 0.059400 -1.572100 -4.324500 2.227824 -0.519088 2.367018 23.446676 0.860587 -8.616079 2.736714 -5.425993 17.041207 -2.674036 5.567358 10.201129 -0.291500 3.471900 -9.595300 1.811670 2.354185 -3.604618 0.956584 2.537073 -5.333176 4.120847 1.657928 5.399126 -10.054453 -3.622803 -17.219844 5.701417 -2.617417 9.890253 6.090700 -1.831000 12.622500 -1.497347 -7.106648 -1.009186 -83.799253 4.530795 31.369108 6.411815 -14.463976 -1.584817 0.255054 1.560032 9.399782 11.001371 -21.283361 -4.329900 -7.125000 0.000000 0.000000 -11.221700 7.071500 9.952600 0.542444 8.701589 0.614227 71.302565 2.376809 42.117358 -15.824025 22.537782 -5.355009 3.349581 3.020375 -15.619159 -28.928042 -25.288732 16.116900 7.125000 0.000000 0.000000 -3.551900 -60.651000 1.356100 
